{"title":"Sierra Burgess Is A Loser 2018 NF 720p WEB-DL x264 ESub [MW]","magnet":"magnet:?xt=urn:btih:92da04bfd40059d6e41e64b39f1fd0f45032aad6&dn=Sierra+Burgess+Is+A+Loser+2018+NF+720p+WEB-DL+x264+ESub+%5BMW%5D&tr=udp%3A%2F%2Ftracker.leechers-paradise.org%3A6969&tr=udp%3A%2F%2Fzer0day.ch%3A1337&tr=udp%3A%2F%2Fopen.demonii.com%3A1337&tr=udp%3A%2F%2Ftracker.coppersurfer.tk%3A6969&tr=udp%3A%2F%2Fexodus.desync.com%3A6969","uploader":"MFreaky","categoryP":"video","categoryS":"hd___movies","size":"956289168","seeders":"0","leechers":"0","description":" <a href=\"https://pichub.site/image/Dgl1J\" rel=\"nofollow\" target=\"_NEW\">https://pichub.site/image/Dgl1J</a> <a href=\"\nhttps://pichub.site/image/Dgn6j\" rel=\"nofollow\" target=\"_NEW\">\nhttps://pichub.site/image/Dgn6j</a> <a href=\"\nhttps://pichub.site/image/DgXBh\" rel=\"nofollow\" target=\"_NEW\">\nhttps://pichub.site/image/DgXBh</a> <a href=\"\nhttps://pichub.site/image/Dg3fr\" rel=\"nofollow\" target=\"_NEW\">\nhttps://pichub.site/image/Dg3fr</a> <a href=\"\nhttps://pichub.site/image/DgZhk\" rel=\"nofollow\" target=\"_NEW\">\nhttps://pichub.site/image/DgZhk</a>\r\n\r\nIMDB <a href=\"\nhttps://www.imdb.com/title/tt3120280/\" rel=\"nofollow\" target=\"_NEW\">\nhttps://www.imdb.com/title/tt3120280/</a>\r\n\r\nVideo\r\nID : 1\r\nFormat : AVC\r\nFormat/Info : Advanced Video Codec\r\nFormat profile : High@L4.1\r\nFormat settings : CABAC / 4 Ref Frames\r\nFormat settings, CABAC : Yes\r\nFormat settings, RefFrames : 4 frames\r\nCodec ID : V_MPEG4/ISO/AVC\r\nDuration : 1 h 45 min\r\nBit rate : 1 100 kb/s\r\nWidth : 1 280 pixels\r\nHeight : 692 pixels\r\nDisplay aspect ratio : 1.85:1\r\nFrame rate mode : Constant\r\nFrame rate : 23.976 (24000/1001) FPS\r\nColor space : YUV\r\nChroma subsampling : 4:2:0\r\nBit depth : 8 bits\r\nScan type : Progressive\r\nBits/(Pixel*Frame) : 0.052\r\nStream size : 814 MiB (89%)\r\nWriting library : x264 core 155 r2901 7d0ff22\r\nDefault : Yes\r\nForced : No\r\n\r\nAudio\r\nID : 2\r\nFormat : AAC\r\nFormat/Info : Advanced Audio Codec\r\nFormat profile : HE-AAC / LC\r\nFormat settings : Explicit\r\nCodec ID : A_AAC-2\r\nDuration : 1 h 45 min\r\nBit rate : 127 kb/s\r\nChannel(s) : 2 channels\r\nChannel positions : Front: L R\r\nSampling rate : 48.0 kHz / 24.0 kHz\r\nFrame rate : 23.438 FPS (1024 SPF)\r\nCompression mode : Lossy\r\nStream size : 96.0 MiB (11%)\r\nLanguage : English\r\nDefault : Yes\r\nForced : No","last_updated":"2018-09-08T12:27:44.824Z","parsed":{"xt":"urn:btih:92da04bfd40059d6e41e64b39f1fd0f45032aad6","dn":"Sierra Burgess Is A Loser 2018 NF 720p WEB-DL x264 ESub [MW]","tr":["udp://exodus.desync.com:6969","udp://open.demonii.com:1337","udp://tracker.coppersurfer.tk:6969","udp://tracker.leechers-paradise.org:6969","udp://zer0day.ch:1337"],"infoHash":"92da04bfd40059d6e41e64b39f1fd0f45032aad6","infoHashBuffer":{"type":"Buffer","data":[146,218,4,191,212,0,89,214,228,30,100,179,159,31,208,244,80,50,170,214]},"name":"Sierra Burgess Is A Loser 2018 NF 720p WEB-DL x264 ESub [MW]","announce":["udp://exodus.desync.com:6969","udp://open.demonii.com:1337","udp://tracker.coppersurfer.tk:6969","udp://tracker.leechers-paradise.org:6969","udp://zer0day.ch:1337"],"urlList":[]}}